<?xml version="1.0" standalone="no"?>
<!DOCTYPE svg PUBLIC "-//W3C//DTD SVG 20010904//EN"
 "http://www.w3.org/TR/2001/REC-SVG-20010904/DTD/svg10.dtd">
<svg version="1.0" xmlns="http://www.w3.org/2000/svg"
 width="294.000000pt" height="301.000000pt" viewBox="0 0 294.000000 301.000000"
 preserveAspectRatio="xMidYMid meet">

<g transform="translate(0.000000,301.000000) scale(0.100000,-0.100000)"
fill="#000000" stroke="none">
<path d="M630 2693 c1 -89 31 -260 63 -354 61 -178 193 -358 328 -448 l61 -41
-226 0 -226 0 0 -200 0 -200 222 0 222 0 -59 -44 c-231 -170 -355 -414 -381
-749 l-7 -87 192 0 191 0 0 38 c0 62 36 187 76 263 36 68 129 175 173 199 l21
11 0 -256 0 -255 200 0 200 0 0 255 c0 157 4 255 10 255 17 0 138 -120 169
-168 43 -68 80 -172 93 -263 l11 -79 183 0 c101 0 185 3 187 8 10 16 -14 229
-34 306 -56 216 -201 426 -379 548 -24 16 -15 17 198 17 l222 1 0 200 0 200
-227 0 -228 0 55 37 c30 20 83 64 116 99 171 173 265 401 276 674 l3 65 -187
3 c-174 2 -188 1 -188 -15 -4 -150 -75 -310 -186 -420 -41 -40 -78 -73 -84
-73 -6 0 -10 88 -10 255 l0 255 -200 0 -200 0 -2 -257 -3 -258 -80 80 c-50 50
-93 104 -113 142 -36 69 -72 196 -72 255 l0 38 -190 0 -190 0 0 -37z"/>
<path d="M830 377 c0 -141 2 -157 23 -197 33 -62 77 -83 180 -84 88 0 123 12
165 56 34 38 42 80 42 236 l0 143 -67 -3 -68 -3 -1 -131 c-1 -72 -4 -142 -7
-156 -13 -51 -101 -57 -126 -9 -6 11 -11 80 -11 160 l0 141 -65 0 -65 0 0
-153z"/>
<path d="M1283 475 l-2 -55 69 0 70 0 0 -160 0 -160 65 0 65 0 0 160 0 160 70
0 70 0 0 55 0 55 -202 0 -203 0 -2 -55z"/>
<path d="M1739 485 c-1 -25 -1 -56 -1 -70 0 -14 0 -90 1 -170 l1 -145 60 0 59
0 3 113 3 112 78 -113 78 -112 65 0 64 0 0 215 0 215 -65 0 -65 0 0 -117 0
-117 -77 114 -78 115 -62 3 -63 3 -1 -46z"/>
</g>
</svg>
